<?xml version="1.0" standalone="no"?>
<!DOCTYPE svg PUBLIC "-//W3C//DTD SVG 20010904//EN"
 "http://www.w3.org/TR/2001/REC-SVG-20010904/DTD/svg10.dtd">
<svg version="1.0" xmlns="http://www.w3.org/2000/svg"
 width="500.000000pt" height="500.000000pt" viewBox="0 0 500.000000 500.000000"
 preserveAspectRatio="xMidYMid meet">

<g transform="translate(0.000000,500.000000) scale(0.100000,-0.100000)"
fill="#000000" stroke="none">
<path d="M2340 3990 l0 -330 165 0 165 0 0 -907 0 -908 262 3 c299 3 261 -6
453 108 95 56 104 59 176 62 90 5 108 -3 196 -83 79 -71 106 -114 105 -166 -1
-65 -33 -104 -118 -144 -82 -39 -74 -28 -169 -230 -34 -71 -81 -159 -104 -195
-35 -54 -42 -71 -37 -100 19 -133 28 -242 22 -273 -8 -43 -44 -67 -100 -67
-50 0 -81 17 -112 62 l-27 39 -47 -46 c-57 -56 -112 -69 -165 -40 -39 20 -45
44 -33 122 11 70 6 179 -9 194 -14 14 -94 24 -128 15 -49 -12 -50 -40 -5 -159
22 -59 40 -114 40 -123 0 -8 -11 -26 -25 -39 -18 -19 -35 -25 -70 -25 -63 0
-97 21 -134 79 -16 27 -39 54 -49 60 -16 9 -22 3 -48 -50 -31 -65 -61 -89
-114 -89 -45 0 -88 26 -97 58 -5 15 -8 97 -8 182 1 170 8 197 62 240 47 37 55
60 30 95 -19 26 -22 46 -25 158 l-4 127 -189 0 -189 0 0 -545 0 -545 1080 0
1080 0 0 855 0 855 165 0 165 0 0 1040 0 1040 -1080 0 -1080 0 0 -330z m1481
0 c10 -6 19 -17 19 -24 0 -8 9 -16 20 -19 11 -3 20 -14 20 -24 0 -10 8 -30 17
-43 21 -30 46 -73 67 -117 8 -18 20 -33 25 -33 6 0 14 -18 17 -39 4 -27 12
-41 25 -44 11 -3 19 -14 19 -25 0 -10 9 -31 20 -45 11 -14 20 -34 20 -45 0
-12 -9 -23 -20 -27 -11 -3 -20 -15 -20 -25 0 -11 -8 -24 -19 -29 -10 -6 -22
-22 -25 -35 -3 -14 -15 -30 -26 -36 -11 -6 -20 -16 -20 -23 0 -7 -18 -28 -40
-47 -22 -19 -40 -40 -40 -47 0 -7 -8 -17 -19 -22 -10 -6 -21 -21 -24 -33 -4
-13 -24 -42 -47 -65 -22 -23 -40 -47 -40 -52 0 -5 -9 -13 -20 -16 -11 -3 -20
-13 -20 -20 0 -8 -8 -20 -19 -27 -10 -7 -21 -22 -25 -34 -3 -11 -24 -39 -46
-62 -22 -23 -40 -46 -40 -51 0 -5 -9 -13 -20 -16 -11 -3 -20 -12 -20 -19 0 -7
-9 -21 -19 -30 -11 -10 -22 -28 -25 -42 -4 -13 -10 -24 -15 -24 -4 0 -20 -12
-35 -26 -24 -24 -28 -25 -44 -12 -9 8 -25 18 -35 22 -11 3 -21 15 -24 26 -3
11 -12 20 -19 20 -8 0 -19 11 -24 25 -5 14 -14 25 -20 25 -5 0 -16 16 -24 35
-8 19 -20 35 -25 35 -6 0 -13 11 -17 24 -3 13 -14 26 -25 29 -10 3 -19 12 -19
21 0 9 -7 16 -15 16 -9 0 -19 8 -22 18 -4 9 -16 26 -27 38 -12 11 -30 33 -41
49 -11 16 -30 41 -42 56 -13 15 -23 32 -23 37 0 6 -9 14 -20 17 -11 3 -20 11
-20 16 0 5 -18 28 -40 51 -22 23 -43 51 -46 62 -4 12 -15 27 -25 34 -11 7 -19
19 -19 27 0 7 -9 17 -20 20 -11 3 -20 12 -20 19 0 8 -10 20 -22 29 -19 12 -23
23 -23 72 0 49 4 60 23 73 12 8 22 25 22 38 0 13 9 32 20 41 11 10 20 25 20
33 0 9 9 26 20 38 11 12 20 28 20 36 0 8 8 23 19 33 10 10 22 32 25 50 4 17
14 34 21 37 8 3 18 20 23 38 5 22 16 35 33 39 41 12 808 10 830 -1z"/>
<path d="M3120 3863 c0 -9 8 -25 17 -35 9 -11 18 -42 21 -74 4 -49 7 -55 26
-52 15 2 22 11 24 30 2 15 12 34 22 41 10 7 22 26 26 42 3 17 16 38 28 47 20
17 18 18 -71 18 -80 0 -93 -2 -93 -17z"/>
<path d="M3536 3853 c4 -16 16 -34 26 -41 10 -7 18 -25 18 -39 0 -14 8 -31 17
-38 9 -7 23 -28 29 -46 l12 -34 1 34 c1 19 9 44 20 55 12 14 20 41 23 79 l5
57 -79 0 -78 0 6 -27z"/>
<path d="M3392 3799 c-16 -6 -22 -16 -22 -39 0 -19 -7 -34 -20 -42 -11 -7 -20
-23 -20 -35 0 -13 -9 -32 -20 -43 -11 -11 -22 -31 -26 -45 l-6 -25 136 0 c75
0 136 3 136 8 0 4 -9 13 -20 20 -12 7 -20 23 -20 41 0 20 -6 30 -20 34 -15 4
-20 14 -20 41 0 20 -5 36 -10 36 -6 0 -18 13 -28 29 -14 23 -21 27 -40 20z"/>
<path d="M3796 3760 c-4 -24 -14 -48 -22 -55 -10 -7 -18 -34 -21 -73 l-6 -62
92 0 c83 0 113 9 77 23 -8 3 -17 21 -21 39 -4 18 -16 39 -26 46 -11 8 -19 25
-19 41 0 17 -7 31 -15 35 -9 3 -19 16 -24 28 -7 19 -9 15 -15 -22z"/>
<path d="M2990 3746 c0 -8 -8 -23 -19 -33 -10 -10 -21 -30 -25 -45 -3 -15 -15
-32 -26 -38 -12 -6 -20 -21 -20 -35 0 -25 1 -25 90 -25 l90 0 0 26 c0 15 -8
32 -17 39 -11 8 -19 32 -23 66 -4 46 -8 54 -27 57 -15 2 -23 -2 -23 -12z"/>
<path d="M2950 3454 c0 -3 9 -17 20 -31 11 -14 20 -32 20 -39 0 -7 9 -18 20
-24 11 -6 20 -16 20 -23 0 -7 18 -28 40 -47 22 -19 40 -40 40 -47 0 -7 9 -17
20 -23 11 -6 23 -22 26 -36 3 -13 15 -29 25 -35 11 -5 19 -19 19 -29 0 -12 7
-20 16 -20 12 0 14 5 8 18 -4 9 -9 37 -12 62 -2 27 -12 52 -23 63 -14 13 -19
32 -19 70 0 41 -4 55 -19 64 -12 7 -21 26 -23 45 l-3 33 -87 3 c-49 1 -88 0
-88 -4z"/>
<path d="M3250 3446 c0 -8 6 -16 14 -19 9 -3 17 -29 21 -66 4 -34 10 -61 14
-61 13 0 31 -49 31 -81 0 -17 9 -42 20 -56 14 -18 20 -41 20 -73 0 -32 5 -52
16 -61 9 -7 20 -22 24 -34 6 -15 9 -8 15 32 4 31 14 58 26 69 14 12 19 30 19
65 0 38 4 52 20 61 15 10 20 24 20 61 0 35 5 52 20 64 15 13 20 30 20 65 l0
48 -150 0 c-122 0 -150 -3 -150 -14z"/>
<path d="M3693 3438 c-12 -14 -23 -42 -26 -71 -2 -26 -11 -56 -19 -65 -9 -9
-18 -39 -22 -66 -4 -30 -14 -57 -26 -68 -21 -19 -28 -68 -10 -68 6 0 10 3 10
8 0 4 18 26 39 50 21 23 42 49 45 57 3 8 12 15 21 15 8 0 15 6 15 14 0 8 8 21
19 28 10 7 21 22 24 33 4 11 24 39 46 63 21 23 42 49 45 57 3 8 12 15 21 15 8
0 15 5 15 10 0 6 -36 10 -88 10 -79 0 -91 -2 -109 -22z"/>
<path d="M3242 3080 c0 -14 2 -19 5 -12 2 6 2 18 0 25 -3 6 -5 1 -5 -13z"/>
<path d="M3534 1895 c-3 -8 -1 -37 5 -65 6 -28 11 -66 11 -84 0 -52 20 -62 87
-43 109 31 118 75 34 159 -42 42 -53 48 -90 48 -27 0 -44 -5 -47 -15z"/>
<path d="M3300 1787 l-75 -42 -277 -3 -278 -3 0 -60 0 -59 -75 0 c-85 0 -92
-6 -81 -66 6 -28 14 -38 41 -50 52 -21 75 -62 75 -131 0 -78 -28 -125 -110
-186 -73 -54 -80 -62 -80 -96 l0 -23 33 25 c18 14 73 44 122 68 l90 43 230 9
c167 6 243 6 280 -3 108 -25 105 -26 162 41 62 73 171 279 179 342 6 44 6 45
-29 56 -51 17 -67 41 -74 107 -9 89 -24 92 -133 31z"/>
</g>
</svg>
